<svg xmlns="http://www.w3.org/2000/svg" viewBox="0 0 456 456">
  <title>
    black fluid person
  </title>
  <path fill="#956E55" d="M373.4 342.8c-3-10-10.6-18-20.5-21.2L321 311c-4-1.2-8.7 1-10 5l-.2.6-24.2-9c-6.6-2-11-8.2-11-15v-26l34.5-14.3c18-7.4 29.8-25 29.8-44.3v-8c13.3 0 24-10.7 24-24 0-7-3-13.4-8-17.8L361 50.4C363 23 341 0 313.6 0h-171c-27.5 0-49.3 23-48 50.4l5.4 107.8c-5 4.4-8 10.7-8 17.8 0 13.3 10.4 24 24 24v8c0 19.4 11.4 37 29.2 44.3l34.5 14.4v25.8c0 7-4.5 13-11 15l-24.3 9v-.5c-1.5-4-6-6.2-10.2-5L103 321.7C93.2 325 85.6 333 82.6 343c-1 3 0 6 2.4 8.2l5.7 5-5.6 83c0 9.2 7 17 16 17h254c9.7 0 17-7.8 16-17l-5.2-83 5.7-5c2.4-2 3.4-5.2 2.5-8.2z"/>
  <path fill="#7C5A49" d="M180 266v26.5c0 5.7-3 10.8-7.8 13.7C239.2 317.7 276 266 276 266h-96z"/>
  <path fill="#623F33" d="M94.5 50.4L100 160h256l5.5-109.6C363 23 341 0 313.5 0h-171c-27.5 0-49.3 23-48 50.4z"/>
  <path fill="#A2795C" d="M340 152v-32c0-22-18-40-40-40H156c-22 0-40 18-40 40v32c-13.3 0-24 10.7-24 24s10.7 24 24 24v8c0 19.4 11.7 37 29.5 44.3l51.7 21.5c9.8 4 20.2 6.2 30.8 6.2 10.6 0 21-2 30.8-6.2l51.7-21.5c17.8-7.4 29.5-25 29.5-44.3v-8c13.3 0 24-10.7 24-24s-10.7-24-24-24z"/>
  <path fill="#623F33" d="M172 184c-4.4 0-8-3.6-8-8v-8c0-4.4 3.6-8 8-8s8 3.6 8 8v8c0 4.4-3.6 8-8 8zm112 0c-4.4 0-8-3.6-8-8v-8c0-4.4 3.6-8 8-8s8 3.6 8 8v8c0 4.4-3.6 8-8 8z"/>
  <path fill="#7C5A49" d="M228 240.2c-14.2 0-27.5-3.5-36.5-9.6-3.7-2.5-4.6-7.4-2-11 2.4-3.7 7.3-4.7 11-2.2 6.3 4.3 16.6 6.8 27.5 6.8s21.2-2.5 27.5-6.8c3.7-2.5 8.6-1.6 11 2 2.6 3.8 1.7 8.7-2 11.2-9 6-22.3 9.6-36.5 9.6z"/>
  <path fill="#956E55" d="M158 235.7c-6.5-7-10-16-10-25.6V81c-18.3 3.7-32 19.8-32 39.2v32c-13.3 0-24 10.7-24 24s10.7 24 24 24v8c0 19.4 11.7 37 29.5 44.3l51.7 21.5c2.6 1 5 2 7.8 2.8-23-16.7-38-31.3-47-41z"/>
  <path fill="#FFA64E" d="M373.4 342.8c-3-10-10.6-18-20.5-21.2L321 311c-4-1.2-8.7 1-10 5-11.7 35-44.6 60-83.4 60s-71.8-25-83.4-60c-1.4-4-6-6.3-10-5L103 321.7C93.2 325 85.6 333 82.6 343c-1 3 0 6 2.4 8.2l44.3 39.5c6.8 6 10.7 14.7 10.7 24V456h176v-41.6c0-9.2 4-18 10.7-24L371 351c2.3-2 3.3-5 2.4-8z"/>
  <path fill="#FFC84A" d="M321.4 311c-4-1.2-8.7 1-10 5-11.7 35-44.6 60-83.4 60s-71.6-25-83.3-60c-1.4-4-6-6.3-10-5l-7.4 2.6c11.4 45 52 78.4 100.7 78.4s89.3-33.4 100.7-78.4l-7.3-2.5z"/>
</svg>