<svg xmlns="http://www.w3.org/2000/svg" viewBox="0 0 464 464">
  <title>Black person with curly hair</title>
  <path fill="#C38762" d="M392 423l-1-6.7c0-2.5-2.5-4.4-5-4h-.5l-7-56.3c-1.5-12.2-10-22.5-21.6-26.4l-40-13c-6-1.8-11-.6-16 3l-11.6-4c-6.6-2-11-8.2-11-15v-26l34.5-14.3c18-7.4 29.7-25 29.7-44.3v-8c13.2 0 24-10.7 24-24 0-4-1-7.8-2.8-11 1.6-4 2.6-8.4 2.6-13 0-3.2-.7-6.3-1.6-9.3 6-5.8 9.6-13.8 9.6-22.7 0-3.2-.6-6.3-1.5-9.3 6-5.8 9.6-13.8 9.6-22.7 0-15.4-11-28.2-25.3-31.3 1-2.8 1.6-5.7 1.6-8.7 0-17.7-14.5-32-32-32-6.8 0-13 2-18 5.5C305.5 17 294 8 280 8c-8 0-15 3-20.6 7.7C253.8 6.3 243.7 0 232 0s-21.8 6.3-27.4 15.7C199 11 192 8 184 8c-14 0-25.7 9-30 21.5-5.2-3.5-11.4-5.5-18-5.5-17.7 0-32 14.3-32 32 0 3 .6 6 1.4 8.7C91 67.7 80 80.7 80 96c0 9 3.6 17 9.5 22.7-1 3-1.5 6-1.5 9.3 0 9 3.6 17 9.5 22.7-1 3-1.5 6-1.5 9.3 0 4.6 1 9 2.7 13-1.7 3.2-2.7 7-2.7 11 0 13.3 10.7 24 24 24v8c0 19.4 11.7 37 29.5 44.3l34.5 14.4v25.8c0 7-4.4 13-11 15l-11.4 4c-4.2-3.5-10-4.7-15.4-3l-39 13c-12 4-20.2 14.5-21.8 26.5l-7 56.2H78c-2.5-.3-4.8 1.6-5 4l-1 6.7c0 2 1.7 4 4.3 5l11.7 1v19c0 8 7.2 16 16 16h256c8.8 0 16-8 16-16v-19l11.7-2c2.6 0 4.5-2.5 4.2-5z"/>
  <path fill="#623F33" d="M374.5 118.7c6-5.8 9.5-13.8 9.5-22.7 0-15.4-11-28.2-25.4-31.3.8-2.8 1.4-5.7 1.4-8.7 0-17.7-14.3-32-32-32-6.6 0-12.8 2-18 5.5C305.8 17 294 8 280 8c-8 0-15 3-20.6 7.7C253.8 6.3 243.7 0 232 0s-21.8 6.3-27.4 15.7C199 11 192 8 184 8c-14 0-25.7 9-30 21.5-5.2-3.5-11.4-5.5-18-5.5-17.7 0-32 14.3-32 32 0 3 .6 6 1.4 8.7C91 67.7 80 80.7 80 96c0 9 3.6 17 9.5 22.7-1 3-1.5 6-1.5 9.3 0 9 3.6 17 9.5 22.7-1 3-1.5 6-1.5 9.3 0 17.7 14.3 32 32 32h208c17.7 0 32-14.3 32-32 0-3.2-.6-6.3-1.5-9.3 6-5.8 9.5-13.8 9.5-22.7 0-3.2-.6-6.3-1.5-9.3z"/>
  <path fill="#FFD739" d="M320 464v-40h67l-8.5-68c-1.5-12.2-10-22.5-21.6-26.4l-40-13c-7-2.3-15 .2-19 6.2-14 22.4-39 37.2-67.5 37.2s-53-14.8-67-37.2c-4-6-11.6-8.5-18.4-6.2l-39 13c-11.7 4-20 14.2-21.6 26.4l-7 61 66 7v40h176z"/>
  <path fill="#A46D4D" d="M280 274.7l-96-21.4v47.2c0 5.7-3.2 10.8-8 13.6 67 12 104-39 104-39z"/>
  <path fill="#D29771" d="M344 160v-24c0-22-18-48-40-48H160c-22 0-40 26-40 48v24c-13.3 0-24 10.7-24 24s10.7 24 24 24v8c0 19.4 11.7 37 29.5 44.3l51.7 21.5c9.8 4 20.2 6.2 30.8 6.2 10.6 0 21-2 30.8-6.2l51.7-21.5c17.8-7.4 29.5-25 29.5-44.3v-8c13.3 0 24-10.7 24-24s-10.7-24-24-24z"/>
  <path fill="#623F33" d="M176 192c-4.4 0-8-3.6-8-8v-8c0-4.4 3.6-8 8-8s8 3.6 8 8v8c0 4.4-3.6 8-8 8zm112 0c-4.4 0-8-3.6-8-8v-8c0-4.4 3.6-8 8-8s8 3.6 8 8v8c0 4.4-3.6 8-8 8z"/>
  <path fill="#A46D4D" d="M232 248.2c-14.2 0-27.5-3.5-36.5-9.6-3.7-2.5-4.6-7.4-2-11 2.4-3.7 7.3-4.7 11-2.2 6.3 4.3 16.6 6.8 27.5 6.8s21.2-2.5 27.5-6.8c3.7-2.5 8.6-1.6 11 2 2.6 3.8 1.7 8.7-2 11.2-9 6-22.3 9.6-36.5 9.6z"/>
  <path fill="#FFC33D" d="M144 430v-18c0-7.8-2.8-15.2-7.8-21l-44-50.8c-3.6 4.5-6 10-6.7 15.8L77 423c13 .6 46.7 4.6 67 7z"/>
  <path fill="#FFB440" d="M144 419.5l-66-7.3c-2.5-.3-4.8 1.6-5 4l-1 6.7c0 2 1.7 4 4.3 5l67.7 7v-16z"/>
  <path fill="#FFC33D" d="M320 430v-18c0-7.8 2.8-15.2 7.8-21l44-50.8c3.6 4.5 6 10 6.7 15.8l8.4 67c-13 .6-47 4.6-67 7z"/>
  <path fill="#FFB440" d="M320 419.5l66-7.3c2.5-.3 5 1.6 5 4l1 6.7c.2 2-1.7 4-4.3 5l-67.7 7v-16z"/>
  <path fill="#C38762" d="M120 89v71c-13.3 0-24 10.7-24 24s10.7 24 24 24v8c0 19.4 11.7 37 29.5 44.3l51.7 21.5c2.6 1 5 2 7.8 2.8-23-16.7-38-31.3-47-41-6.5-6.8-10-16-10-25.5v-90c8.5-1 16-5 21.8-10 4.3 2 9 3 14.2 3 11 0 20.7-5 27.3-13 5 3 10.6 5 16.7 5 8.2 0 15.6-3 21.3-8 6.2 5 14 8.7 22.7 8.7 15.3 0 28.2-9.6 33.4-23H120z"/>
  <path fill="#623F33" d="M344 96c-.5 0-1 0-1.5.2 1-2.6 1.5-5.3 1.5-8.2 0-13.3-10.7-24-24-24-3 0-5.7.6-8.2 1.5C310.5 46.8 295 32 276 32c-16.4 0-30 11-34.4 26-3-1.3-6.2-2-9.6-2-9 0-16.7 5-20.8 12.3C206.2 61 197.6 56 188 56c-11.5 0-21.3 7-25.6 16.8-4.4-5.4-11-8.8-18.4-8.8-9 0-16.7 5-20.8 12h-1.7c-9 0-16.5 7.4-16.5 16.5 0 2.7.7 5.2 1.8 7.5-6.5 4.3-10.8 11.6-10.8 20 0 13.3 10.7 24 24 24s24-10.7 24-24c0-3-.6-5.6-1.5-8.2l1.5.2c9 0 16.7-5 20.8-12.3 5 7.4 13.6 12.3 23.2 12.3 11.5 0 21.3-7 25.6-16.8 4.4 5.4 11 8.8 18.4 8.8 8 0 15-4 19.3-10 6.5 6.2 15 10 24.7 10 8.2 0 15.6-2.8 21.7-7.4 3.4 9 12 15.4 22.3 15.4.5 0 1 0 1.5-.2-1 2.6-1.5 5.3-1.5 8.2 0 13.3 10.7 24 24 24s24-10.7 24-24-10.7-24-24-24z"/>
</svg>