<svg xmlns="http://www.w3.org/2000/svg" viewBox="0 0 456 456">
  <title>Short hair with glasses</title>
  <path id="neck" fill="#FFD7A3" d="M384.6 429l-10-81c-1.6-12.2-10-22.5-21.7-26.4l-40-13c-6-1.8-11-.6-16 3l-11.7-4c-6.6-2-11-8.2-11-15v-26l34.5-14.3c18-7.4 29.7-25 29.7-44.3v-8c13.2 0 24-10.7 24-24 0-6.5-2.7-12.5-7-16.8l8.4-67.5c4-31.5-10.7-62.5-37.7-79.3C314 4.4 299 0 284 0H169c-16.4 1-31 10.3-39 24h-2c-23.6 0-43.4 20-40.7 43.6v.5L99 160c-4.4 4.3-7 10.3-7 16.8 0 13.4 10.8 24 24 24v8c0 19.5 11.7 37 29.5 44.4l34.5 14V293c0 7-4.4 13-11 15.2l-11.4 3.8c-4.2-3.5-10-4.7-15.4-3l-39 13c-12 4-20.2 14.4-21.8 26.4l-10 81c-2 14.4 9.3 27 23.7 27h266c15 0 26-12.6 24-27z"/>
  <path id="neckshadow" fill="#FDC88E" d="M180 292.5v1.7c0 .2 0 .4-.2.5v1c-1 4.3-3.7 8.2-7.5 10.5C239.3 317.7 276 266 276 266h-96v26.5z"/>
  <path id="hair_right" fill="#734A3E" d="M327.8 12.4c-13-8-28-12.4-43.2-12.4h-.6v168h72l9.5-76.3c4-31.5-10.7-62.5-37.7-79.3z"/>
  <path id="hairleft" fill="#623F33" d="M87.5 67.6v.5L100 168h48V24h-19.8c-23.6 0-43.4 20-40.7 43.6z"/>
  <path id="face_light" fill="#FFE1B2" d="M340 152v-16c0-22-18-40-40-40H156c-22 0-40 18-40 40v16c-13.2 0-24 10.8-24 24 0 13.3 10.8 24 24 24v8c0 19.4 11.7 37 29.5 44.3l51.7 21.6c9.8 4 20.2 6 30.8 6 10.6 0 21-2 30.8-6l51.7-22c18-8 29.5-25 29.5-45v-8c13.3 0 24-11 24-24s-10.7-24-24-24z"/>
  <path id="eyes" fill="#623F33" d="M172 184c-4.4 0-8-3.6-8-8v-8c0-4.4 3.6-8 8-8s8 3.6 8 8v8c0 4.4-3.6 8-8 8zm112 0c-4.4 0-8-3.6-8-8v-8c0-4.4 3.6-8 8-8s8 3.6 8 8v8c0 4.4-3.6 8-8 8z"/>
  <path id="lips" fill="#E4B07B" d="M228 240.2c-14.2 0-27.5-3.5-36.5-9.6-3.6-2.5-4.6-7.4-2-11 2.4-3.7 7.4-4.7 11-2.2 6.3 4.3 16.6 6.8 27.5 6.8s21.2-2.5 27.5-6.8c3.7-2.5 8.6-1.5 11 2 2.6 3.8 1.7 8.7-2 11.2-9 6-22.3 9.6-36.5 9.6z"/>
  <path id="faceshadowleft" fill="#FFD7A3" d="M300 96H156c-2.7 0-5.4.3-8 .8-18.2 3.7-32 20-32 39.2v16c-13.2 0-24 10.8-24 24s10.8 24 24 24v8c0 19.4 11.7 37 29.5 44.3l51.7 21.6c2.6 1 5 1 7.8 2-23-17-38-32-47-41-6.5-7-10-16-10-26v-90c44.4 36 140.2 33 192 33v-16c0-22-18-40-40-40z"/>
  <path id="hair_and_glasses" fill="#734A3E" d="M284 0H172c-26.5 0-48 21.5-48 48 0 46.3 44 74.3 80 88 0 0-4-7.3-9.4-18 32 10.5 81.2 18 148.4 18v-23C343-3.7 284 0 284 0zm56.3 144h-40.8c-4.6-2.5-10-4-15.5-4-14.7 0-27.2 10-31 23.7-4.5-9.3-14-15.7-25-15.7s-20.5 6.4-25 15.7c-4-13.7-16.3-23.7-31-23.7-5.6 0-10.8 1.5-15.4 4H116c-2.2 0-4 1.8-4 4s1.8 4 4 4h31c-4.3 5.5-7 12.4-7 20 0 17.7 14.4 32 32 32 15 0 27.5-10.3 31-24h1c2.2 0 4-1.8 4-4 0-11 9-20 20-20s20 9 20 20c0 2.2 1.8 4 4 4h1c3.5 13.7 16 24 31 24 17.7 0 32-14.3 32-32 0-7.6-2.6-14.5-7-20h31.3c2.2 0 4-1.8 4-4s-1.8-4-4-4zM172 196c-13.2 0-24-10.8-24-24s10.8-24 24-24 24 10.8 24 24-10.8 24-24 24zm112 0c-13.2 0-24-10.8-24-24s10.8-24 24-24 24 10.8 24 24-10.8 24-24 24z"/>
  <path id="collar" fill="#B97E63" d="M228 358c32.6 0 61-18 75.5-44.8l-16.6-5.5c-2-.6-3-1.4-5-2.3-11 18.3-32 30.6-55 30.6s-43-12.3-54-30.6c-2 1-3 1.7-5 2.3l-16.4 5.5c15 26.8 43.5 44.8 76 44.8z"/>
  <path id="shirtmain" fill="#FFA64E" d="M384.6 429l-10-81c-1.6-12.2-10-22.5-21.7-26.4l-40-13c-7-2.2-15 .2-19 6.2-14 22.4-39 37.2-67.6 37.2s-53-14.8-67-37.2c-4-6-11.6-8.4-18.4-6.2l-39 13c-11.7 4-20 14.2-21.6 26.4l-10 81c-2 14.4 9.5 27 24 27H360c14.6 0 25.7-12.6 24-27z"/>
  <path id="sleeves" fill="#FF8C51" d="M88.2 332.2c-3.6 4.5-6 10-6.7 15.8l-10 81c-2 14.4 9.3 27 23.7 27H140v-52c0-7.8-2.8-15.2-7.8-21l-44-50.8zm279.6 0c3.6 4.5 6 10 6.7 15.8l10 81c2 14.4-9.2 27-23.7 27H316v-52c0-7.8 2.8-15.2 7.8-21l44-50.8z"/>
</svg>