<svg xmlns="http://www.w3.org/2000/svg" viewBox="0 0 448 448">
  <path fill="#f59510" d="M224 264c-22 .2-63.3 2.7-80 8l80 74 80-74c-16.7-5.3-58-7.8-80-8z"/>
  <path fill="#F6B47B" d="M380.6 421l-10-81c-1.6-12.2-10-22.5-21.7-26.4l-29-9.6c0-.5 1-7.6-8-13.3-7-4.7 2-13.2-8.8-18.7l-27 24.2c-3-3-5-7.2-5-11.7v-25.8l34.5-14.4c18-7.4 29.5-25 29.5-44.3v-8c13.3 0 24-10.7 24-24 0-7-3-13.4-8-17.8l3-57.6C358 42.3 317.5 0 267.2 0H181c-50.6 0-90.7 42.3-88 92.6l3 57.6c-4.8 4.4-8 10.8-8 17.8 0 13.3 10.7 24 24 24v8c0 19.4 11.7 37 29.5 44.3l34.5 14.4v25.8c0 4.5-2 8.7-5 11.7L144 272c-10.7 5.5-1.5 14-8.5 18.7-9 6-7.5 13.3-7.5 13.3l-29 9.6c-11.6 4-20 14.2-21.5 26.4l-10 81c-2 14.3 9.3 27 23.7 27h265.6c14.4 0 25.6-12.7 23.8-27z"/>
  <path fill="#8D5F3D" d="M180.8 0c-50.5 0-90.6 42.3-88 92.6L96 152h256l3-59.4C358 42.3 317.8 0 267.3 0H181z"/>
  <path fill="#835438" d="M93 92.6l3 59.4h60C186.5 57.5 256 0 256 0h-75.2c-50.5 0-90.6 42.3-88 92.6z"/>
  <path fill="#ff922f" d="M380.6 421l-10-81c-1.6-12.2-10-22.5-21.7-26.4l-46-15c-3.6-1.2-7.6.2-9.4 3.6-13.6 25-67 41.8-70.3 41.8s-56.8-17-70.4-41.8c-1.8-3.4-5.8-4.8-9.4-3.6l-45.3 15c-11.6 4-20 14.2-21.5 26.4l-10 81c-2 14.3 9 27 23.5 27H356c14.5 0 25.7-12.7 24-27z"/>
  <path fill="#ffe80b" d="M84.2 324.2c-3.6 4.5-6 10-6.7 15.8l-10 81c-2 14.3 9.3 27 23.7 27H136v-52c0-7.8-2.8-15.2-7.8-21l-44-50.8zm279.6 0c3.6 4.5 6 10 6.7 15.8l10 81c2 14.3-9.3 27-23.7 27H312v-52c0-7.8 2.8-15.2 7.8-21l44-50.8z"/>
  <path fill="#E2A071" d="M272 258.7l-96-21.4v47.2c0 5.7-3.2 10.8-8 13.6 67 12 104-39 104-39z"/>
  <path fill="#FDC88E" d="M336 144v-16c0-22-18-40-40-40H152c-22 0-40 18-40 40v16c-13.3 0-24 10.7-24 24s10.7 24 24 24v8c0 19.4 11.7 37 29.5 44.3l51.7 21.5c9.8 4 20.2 6.2 30.8 6.2 10.6 0 21-2 30.8-6.2l51.7-21.5c17.8-7.4 29.5-25 29.5-44.3v-8c13.3 0 24-10.7 24-24s-10.7-24-24-24z"/>
  <path fill="#623F33" d="M168 176c-4.4 0-8-3.6-8-8v-8c0-4.4 3.6-8 8-8s8 3.6 8 8v8c0 4.4-3.6 8-8 8zm112 0c-4.4 0-8-3.6-8-8v-8c0-4.4 3.6-8 8-8s8 3.6 8 8v8c0 4.4-3.6 8-8 8z"/>
  <path fill="#E2A071" d="M224 232.2c-14.2 0-27.5-3.5-36.5-9.6-3.7-2.5-4.6-7.4-2-11 2.4-3.7 7.3-4.7 11-2.2 6.3 4.3 16.6 6.8 27.5 6.8s21.2-2.5 27.5-6.8c3.7-2.5 8.6-1.6 11 2 2.6 3.8 1.7 8.7-2 11.2-9 6-22.3 9.6-36.5 9.6z"/>
  <path fill="#F6B47B" d="M189 152c45.3-27.3 69-63 69-63l-114-.2c-18.3 3.7-32 20-32 39.2v16c-13.3 0-24 10.7-24 24s10.7 24 24 24v8c0 19.4 11.7 37 29.5 44.3l51.7 21.5c2.6 1 5 2 7.8 2.8-23-16.7-38-31.3-47-41-6.5-6.8-10-16-10-25.5v-71l45 21.8z"/>
  <path fill="#ffe80b" d="M312.4 290.7c-7-4.7 2.2-13.2-8.5-18.7l-80 72-80-72c-11 5.5-2 14-9 18.7-9 6-7.7 13.3-7.7 13.3l96 48 96-48s1.2-7.4-7.7-13.3z"/>
  <path fill="#8D5F3D" d="M120 104l32 16 24-8-8 16 16 8s27.3-13.5 56-45v37s22-.5 32-8l8-32s8 23.3 16 40l16-8V72H120v32z"/>
  <path fill="#835438" d="M120 72v32l32 16 19.3-6.4c7.2-15.2 15.2-29.2 23.3-41.6H120z"/>
</svg>