<svg xmlns="http://www.w3.org/2000/svg" viewBox="0 0 464 464">
  <path fill="#A2795C" d="M416 423l-.8-6.7c-.2-2.5-2.6-4.4-5.2-4h-.4l-7-56.3c-1.5-12.2-10-22.5-21.6-26.4l-39-13c-5.4-1.8-11.3-.6-15.5 3l-11.5-4c-6.5-2-11-8.2-11-15v-26l34.6-14.3c18-7.4 29.5-25 29.5-44.3v-8c14 0 24-10.7 24-24s-10-24-24-24v-32c0-22-17-40-40-40H184c-22 0-40 18-40 40v32c-13 0-24 10.7-24 24s11 24 24 24v8c0 19.4 11.8 37 29.6 44.3l34.5 14.4v25.8c0 7-4 13-10 15l-11 4c-4-3.5-10-4.7-15-3l-39 13c-12 4-20.2 14.3-21.7 26.5l-7 56.2h-.4c-2.7-.3-5 1.6-5.3 4l-1 6.8c-.2 2 1.6 4.2 4 5l11.8 1v19c0 8.5 7.5 16 16 16h256c9 0 16-7.5 16-16v-19l11.5-1c2.6-.2 4.5-2.5 4.2-5z"/>
  <path fill="#8F6951" d="M208 300.5c0 5.7-3 10.8-7.6 13.7 67 11.5 103.7-39.5 103.7-39.5h-96v25.8z"/>
  <path fill="#C93F44" d="M146 112l-90.4 7.4c-4.3.3-7.6 4-7.6 8.3 0 4.6 3.7 8.3 8.3 8.3H146v-24z"/>
  <path fill="#f26f44" d="M344 464v-40h67l-8.4-68c-1.5-12.2-10-22.5-21.6-26.4l-39-13c-7-2.3-14.5.2-18.4 6.2-14 22.4-39 37.2-67.5 37.2s-53-14.8-67-37.2c-4-6-11-8.5-18-6.2l-39 13c-12 4-20 14.2-21 26.4l-7.3 61 66 7v40h176z"/>
  <path fill="#AD8366" d="M368 160v-32c0-22-17.8-40-40-40H184c-22 0-40 18-40 40v32c-13.3 0-24 10.7-24 24s10.7 24 24 24v8c0 19.4 11.8 37 29.6 44.3l51.7 21.5c9.8 4 20.2 6.2 30.8 6.2 11 0 21-2 31-6.2l52-21.5c18-7.4 30-25 30-44.3v-8c14 0 24-10.7 24-24s-10-24-24-24z"/>
  <path fill="#A2795C" d="M186 243.7c-6.4-7-10-16-10-25.6v-89h-32v31c-13 0-24 11-24 24s11 24 24 24v8c0 20 11.8 37 29.6 45l51.7 22 7.8 3c-22-16.3-38-31-47-41z"/>
  <path fill="#623F33" d="M200 192c-4.3 0-8-3.6-8-8v-8c0-4.4 3.7-8 8-8 4.5 0 8 3.6 8 8v8c0 4.4-3.5 8-8 8zm112 0c-4.3 0-8-3.6-8-8v-8c0-4.4 3.7-8 8-8 4.5 0 8 3.6 8 8v8c0 4.4-3.5 8-8 8z"/>
  <path fill="#8F6951" d="M256 248.2c-14 0-27.4-3.5-36.4-9.6-3.6-2.5-4.6-7.4-2-11 2.4-3.7 7.4-4.7 11-2.2 6.3 4.3 16.6 6.8 27.5 6.8s22-2.5 28-6.8c4-2.5 9-1.6 11 2 3 3.8 2 8.7-2 11.2-9 6-22 9.6-36 9.6z"/>
  <path fill="#ff894f" d="M168 430v-18c0-7.8-2.7-15.2-7.7-21l-44-50.8c-3.6 4.5-6 10-6.7 15.8l-8.3 67c12.7.6 46.5 4.6 66.8 7z"/>
  <path fill="#C93F44" d="M168 419.5l-65.8-7.3c-2.6-.3-5 1.6-5.2 4l-.8 6.7c-.2 2 1.6 4 4.2 5l67.6 7v-16z"/>
  <path fill="#ff894f" d="M344 430v-18c0-7.8 3-15.2 8-21l44-50.8c3.5 4.5 6 10 6.6 15.8l8.4 67c-12.8.6-46.6 4.6-67 7z"/>
  <path fill="#C93F44" d="M344 419.5l66-7.3c2.6-.3 5 1.6 5.2 4l.8 6.7c.3 2-1.6 4-4.2 5l-67.8 7v-16z"/>
  <path fill="#ff844f" d="M349.4 36.6L271.4 3c-4.8-2-10-3-15.3-3-5 0-10 1-15 3l-78 33.6c-16 6.8-25 23-24 40.3l6 59h136c5 0 8-4 8-8v-24c0-5 4-8 8-8h48c5 0 8 3 8 8v24c0 4 4 8 8 8h8l6-59c1.8-18-8-34-24-41z"/>
  <path fill="#f25c44" d="M256 0c-5 0-10.3 1-15 3l-78 33.6c-16 6.8-25.6 23-24 40.3l5.3 59h64V68c0-12.8 5.2-25 14.2-34l34-34zm32 112h64v16h-64z"/>
</svg>